<svg version="1.1" id="Laag_1" xmlns="http://www.w3.org/2000/svg" xmlns:xlink="http://www.w3.org/1999/xlink" x="0" y="0" viewBox="0 0 529.11 282.19" style="enable-background:new 0 0 529.11 282.19" xml:space="preserve">
    <style>
        .st2{fill:#bccf11}.st4{fill:none;stroke:#0a69b3;stroke-width:2.275;stroke-miterlimit:10}
    </style>
    <path style="fill:#fff" d="M0 0h529.11v282.19H0z"/>
    <path style="fill:#0a69b3" d="M0 0h529.11v282.19H0z"/>
    <path class="st2" d="M128.96 89.34c-8.01 0-13.22 4.87-13.22 13.13v3.08c0 8.25 5.21 13.13 13.22 13.13 8.01 0 13.22-4.87 13.22-13.13v-3.08c0-8.26-5.21-13.13-13.22-13.13m4.96 16.06c0 3.88-1.8 5.82-4.96 5.82-3.2 0-4.96-1.94-4.96-5.82v-2.39c0-3.88 1.75-5.87 4.96-5.87 3.15 0 4.96 1.99 4.96 5.87v2.39zM149.54 92.12v2.93h-3.86v7.41h3.86v19.19h8.31v-19.19h5.86v-7.41h-5.86v-2.63c0-2.93 1.25-4.23 3.9-4.23h1.95v-7.81h-2.25c-7.96.01-11.91 3.84-11.91 11.74M226.49 89.34c-2.05 0-4.05.6-5.86 1.69v-4.67h-8.31v32.32h8.31v-16.95c0-2.93 1.5-4.57 4.21-4.57 2.65 0 4.01 1.49 4.01 4.57v19.94h8.26v-20.68c0-7.43-3.86-11.65-10.62-11.65M259.54 80.39v10.29c-1.6-.84-3.6-1.34-5.81-1.34-7.61 0-12.32 5.02-12.32 13.13v3.88c0 8.1 4.71 13.13 12.32 13.13 2.2 0 4.21-.5 5.81-1.34v3.53h8.26V80.39h-8.26zm0 25.8c0 3.83-1.75 5.82-4.96 5.82-3.2 0-4.91-1.99-4.91-5.82v-3.18c0-3.83 1.7-5.87 4.91-5.87s4.96 1.99 4.96 5.87v3.18zM198.59 86.35v4.08c-1.62-.85-3.63-1.35-5.85-1.35-7.67 0-12.41 5.06-12.41 13.23v3.91c0 8.17 4.74 13.23 12.41 13.23 2.22 0 4.24-.5 5.85-1.35v3.56h8.33v-35.3h-8.33zm-5 25.58c-3.23 0-4.95-2-4.95-5.86v-3.21c0-3.86 1.72-5.91 4.95-5.91s5 2 5 5.91v3.21c0 3.86-1.77 5.86-5 5.86M259.49 124.69h8.31v41.27h-8.31zM241.11 133.64c-8.01 0-13.22 4.87-13.22 13.13v6.07c0 8.25 5.21 13.13 13.22 13.13s13.22-4.87 13.22-13.13v-6.07c0-8.25-5.21-13.13-13.22-13.13m4.96 19.05c0 3.88-1.8 5.82-4.96 5.82-3.2 0-4.96-1.94-4.96-5.82v-5.37c0-3.88 1.75-5.87 4.96-5.87 3.15 0 4.96 1.99 4.96 5.87v5.37zM210.62 133.64c-8.01 0-13.22 4.87-13.22 13.13v3.08c0 8.25 5.21 13.13 13.22 13.13 8.01 0 13.22-4.87 13.22-13.13v-3.08c0-8.25-5.21-13.13-13.22-13.13m4.96 16.06c0 3.88-1.8 5.82-4.96 5.82-3.2 0-4.96-1.94-4.96-5.82v-2.39c0-3.88 1.75-5.87 4.96-5.87 3.15 0 4.96 1.99 4.96 5.87v2.39zM150.79 163.97c8.46 0 12.62-4.23 13.17-12.68h-8.26c-.35 3.53-1.55 5.22-4.86 5.22-3.3 0-5.01-1.94-5.01-5.82v-4.38c0-3.88 1.7-5.87 5.01-5.87 3.25 0 4.51 1.64 4.86 5.27h8.26c-.55-8.65-4.56-13.08-13.17-13.08-8.16 0-13.22 5.02-13.22 13.13v5.07c0 8.12 5.06 13.14 13.22 13.14M121.95 165.96c7.36 0 12.07-4.38 12.07-11.14 0-6.31-3.31-9.3-11.67-10.44-3.55-.5-4.51-1.19-4.51-3.23 0-2.14 1.4-3.38 3.65-3.38 2.4 0 3.4 1.14 3.5 4.13h8.26c0-7.16-4.46-11.24-11.82-11.24-7.06 0-11.72 4.27-11.72 10.84 0 6.17 3.25 9.25 10.92 10.34 4.41.6 5.26 1.19 5.26 3.63 0 2.14-1.5 3.43-3.96 3.43-3.05 0-4.41-1.44-4.46-4.77h-8.31c.02 7.75 4.63 11.83 12.79 11.83M182.53 133.64c-2.05 0-4.06.6-5.86 1.69v-10.64h-8.31v38.28h8.31v-16.95c0-2.93 1.5-4.57 4.21-4.57 2.65 0 4.01 1.49 4.01 4.57v19.94h8.26v-20.68c0-7.41-3.86-11.64-10.62-11.64M168.36 80.39h8.31v41.27h-8.31zM102.53 80.45v8.21c0 6.41-4.74 11.76-10.91 12.82V80.45H83.1v19.64c-1.11-.6-2.14-1.37-3.05-2.29l-.33.3-5.77 5.67c2.59 2.6 5.72 4.47 9.15 5.49v9.41h8.51v-8.61a21.66 21.66 0 0 0 10.91-4.32v15.91h8.51v-41.2h-8.5zM74.54 195.45v-2.23c0-2.97 1.79-4.86 4.65-4.86 2.85 0 4.64 1.89 4.64 4.86v2.23c0 2.97-1.79 4.86-4.64 4.86-2.88 0-4.65-1.89-4.65-4.86zm6.6.08v-2.31c0-1.49-.7-2.31-1.95-2.31s-1.96.82-1.96 2.31v2.31c0 1.51.71 2.36 1.96 2.36s1.95-.85 1.95-2.36zM93.18 193.77v6.54h-2.61v-6.3c0-.97-.43-1.45-1.27-1.45-.85 0-1.33.52-1.33 1.45v5.36h-2.63v-10.22h2.63v1.48c.57-.35 1.2-.53 1.85-.53 2.14-.01 3.36 1.33 3.36 3.67zM98.08 192.95v3.47c0 1.07.43 1.52 1.39 1.52h.74v2.36h-1.03c-2.67 0-3.73-1.21-3.73-3.84v-3.52h-1.22v-2.47h1.22v-2.12h2.63v2.12h2.14v2.47h-2.14zM109.72 187.26v13.05h-2.61v-1.12c-.51.27-1.14.42-1.84.42-2.41 0-3.89-1.59-3.89-4.15v-1.23c0-2.56 1.49-4.15 3.89-4.15.7 0 1.33.16 1.84.42v-3.25h2.61zm-2.61 8.16v-1.01c0-1.23-.55-1.86-1.57-1.86s-1.55.64-1.55 1.86v1.01c0 1.21.54 1.84 1.55 1.84s1.57-.63 1.57-1.84zM113.85 195.26v.85c0 1.23.54 1.84 1.58 1.84s1.44-.53 1.55-1.65h2.61c-.17 2.72-1.6 4.01-4.18 4.01-2.58 0-4.18-1.59-4.18-4.15v-2.86c0-2.56 1.6-4.15 4.18-4.15 2.61 0 4.18 1.49 4.18 4.01v2.11h-5.74zm0-2.09v.17h3.13v-.33c0-1.1-.55-1.68-1.55-1.68-1.05.01-1.58.63-1.58 1.84zM126.74 200.31l-3.01-4.81v3.87h-2.63v-12.1h2.63v6.81l2.82-4.92h2.9l-3.26 5.6 3.45 5.56h-2.9zM133.23 201.25h.41c.82 0 1.19-.38 1.19-1.32v-8.43h2.63v8.39c0 2.53-.82 3.71-3.34 3.71h-.89v-2.35zm1.11-12.26c0-.99.73-1.63 1.82-1.63 1.11 0 1.82.64 1.82 1.63 0 .99-.71 1.63-1.82 1.63-1.09.01-1.82-.64-1.82-1.63zM141.59 195.26v.85c0 1.23.54 1.84 1.58 1.84s1.44-.53 1.55-1.65h2.61c-.17 2.72-1.6 4.01-4.18 4.01-2.58 0-4.18-1.59-4.18-4.15v-2.86c0-2.56 1.6-4.15 4.18-4.15 2.61 0 4.18 1.49 4.18 4.01v2.11h-5.74zm0-2.09v.17h3.13v-.33c0-1.1-.55-1.68-1.55-1.68-1.04.01-1.58.63-1.58 1.84zM165.61 193.77v6.54H163v-6.3c0-.96-.41-1.45-1.2-1.45-.81 0-1.28.52-1.28 1.43v5.38h-2.61v-5.36c0-.96-.4-1.45-1.2-1.45-.81 0-1.27.52-1.27 1.43v5.38h-2.63v-10.22h2.63v1.48c.55-.35 1.14-.53 1.76-.53 1.09 0 1.98.38 2.55 1.08.51-.63 1.5-1.08 2.53-1.08 2.1-.01 3.33 1.31 3.33 3.67zM166.97 195.22v-.97c0-2.61 1.65-4.15 4.18-4.15s4.18 1.54 4.18 4.15v.97c0 2.61-1.65 4.15-4.18 4.15s-4.18-1.54-4.18-4.15zm5.75-.05v-.75c0-1.23-.57-1.86-1.57-1.86-1.01 0-1.57.63-1.57 1.86v.75c0 1.23.55 1.84 1.57 1.84 1 0 1.57-.61 1.57-1.84zM184.84 189.15v10.63c0 2.47-1.44 3.84-3.94 3.84-2.58 0-3.8-1.31-3.94-3.8h2.61c.05 1.05.41 1.56 1.33 1.56.82 0 1.33-.52 1.33-1.46v-1.15c-.51.27-1.14.42-1.84.42-2.41 0-3.89-1.59-3.89-4.15v-.79c0-2.56 1.49-4.15 3.89-4.15.7 0 1.33.16 1.84.42v-1.37h2.61zm-2.61 5.83v-.57c0-1.23-.55-1.86-1.57-1.86-1.01 0-1.55.64-1.55 1.86v.57c0 1.21.54 1.84 1.55 1.84s1.57-.63 1.57-1.84zM188.97 195.26v.85c0 1.23.54 1.84 1.58 1.84s1.44-.53 1.55-1.65h2.61c-.17 2.72-1.6 4.01-4.18 4.01-2.58 0-4.18-1.59-4.18-4.15v-2.86c0-2.56 1.6-4.15 4.18-4.15 2.61 0 4.18 1.49 4.18 4.01v2.11h-5.74zm0-2.09v.17h3.13v-.33c0-1.1-.55-1.68-1.55-1.68-1.04.01-1.58.63-1.58 1.84zM196.23 187.26h2.63v13.05h-2.63v-13.05zM200.22 188.99c0-.99.71-1.62 1.82-1.62 1.09 0 1.82.63 1.82 1.62 0 .99-.73 1.63-1.82 1.63-1.11.01-1.82-.64-1.82-1.63zm.51 2.52h2.63v8.8h-2.63v-8.8zM204.34 201.25h.41c.82 0 1.19-.38 1.19-1.32v-8.43h2.63v8.39c0 2.53-.82 3.71-3.34 3.71h-.89v-2.35zm1.11-12.26c0-.99.73-1.63 1.82-1.63 1.11 0 1.82.64 1.82 1.63 0 .99-.71 1.63-1.82 1.63-1.1.01-1.82-.64-1.82-1.63zM216.07 200.31l-3.01-4.81v3.87h-2.63v-12.1h2.63v6.81l2.82-4.92h2.9l-3.26 5.6 3.45 5.56h-2.9zM227.68 193.77v6.54h-2.61v-6.3c0-.97-.43-1.45-1.27-1.45-.85 0-1.33.52-1.33 1.45v5.36h-2.63v-12.1h2.63v3.36c.57-.35 1.2-.53 1.85-.53 2.14-.01 3.36 1.33 3.36 3.67zM231.65 195.26v.85c0 1.23.54 1.84 1.58 1.84s1.44-.53 1.55-1.65h2.61c-.17 2.72-1.6 4.01-4.18 4.01-2.58 0-4.18-1.59-4.18-4.15v-2.86c0-2.56 1.6-4.15 4.18-4.15 2.61 0 4.18 1.49 4.18 4.01v2.11h-5.74zm0-2.09v.17h3.13v-.33c0-1.1-.55-1.68-1.55-1.68-1.04.01-1.58.63-1.58 1.84zM246.91 187.26v13.05h-2.61v-1.12c-.51.27-1.14.42-1.84.42-2.41 0-3.89-1.59-3.89-4.15v-1.23c0-2.56 1.49-4.15 3.89-4.15.7 0 1.33.16 1.84.42v-3.25h2.61zm-2.61 8.16v-1.01c0-1.23-.55-1.86-1.57-1.86-1.01 0-1.55.64-1.55 1.86v1.01c0 1.21.54 1.84 1.55 1.84s1.57-.63 1.57-1.84zM251.04 195.26v.85c0 1.23.54 1.84 1.58 1.84s1.44-.53 1.55-1.65h2.61c-.17 2.72-1.6 4.01-4.18 4.01-2.58 0-4.18-1.59-4.18-4.15v-2.86c0-2.56 1.6-4.15 4.18-4.15 2.61 0 4.18 1.49 4.18 4.01v2.11h-5.74zm0-2.09v.17h3.13v-.33c0-1.1-.55-1.68-1.55-1.68-1.04.01-1.58.63-1.58 1.84zM266.14 193.77v6.54h-2.61v-6.3c0-.97-.43-1.45-1.27-1.45-.85 0-1.33.52-1.33 1.45v5.36h-2.63v-10.22h2.63v1.48c.57-.35 1.2-.53 1.85-.53 2.14-.01 3.36 1.33 3.36 3.67zM418.78 76.46c1.84 0 3.33-1.49 3.33-3.33s-1.49-3.33-3.33-3.33-3.33 1.49-3.33 3.33c-.01 1.84 1.49 3.33 3.33 3.33zm0-4.94a1.609 1.609 0 1 1 0 3.22c-.89 0-1.61-.72-1.61-1.61-.01-.89.72-1.61 1.61-1.61z"/>
    <path class="st2" d="M457.35 192.18c-.17-.17-.38-.28-.61-.31-.15-3.16-2.71-5.71-5.88-5.75-1.91-.03-3.76-.45-5.48-1.27-4.28-2.02-12.31-5.83-15.7-7.44l-1.24-.59c-.12-.06-.25-.09-.38-.11v-2.68h2.25V66.45h-23.67v21.04c0 15.89-11.36 29.18-26.42 32.25V66.45h-23.67v49.23c-2.3-1.4-4.45-3.09-6.4-5.06l-.59-.6-1.47 1.37-.79.78-4.49-4.12c.15-.12.28-.26.37-.44.22-.43.19-.92-.06-1.33-.87-1.4-3.2-4.93-6.43-8.03l.1-.09c.44-.4.46-1.08.07-1.52l-2.4-2.63c-.4-.44-1.08-.47-1.52-.07l-36.1 32.87c-.44.4-.47 1.08-.07 1.52l2.4 2.63c.19.21.46.34.74.35.24.01.47-.05.66-.19a6.079 6.079 0 0 0 4.25 1.74 5.9 5.9 0 0 0 3.97-1.52 13.16 13.16 0 0 1 4.88-2.8c5.23-1.66 15.81-5 17.87-5.64.2-.06.38-.17.53-.31l2.55 2.15-2.02 2 .6.61c6.62 6.71 14.61 11.55 23.34 14.29v24.03l6.82 11.23h-6.33c-4.19 0-7.6 3.41-7.6 7.6 0 4.19 3.41 7.6 7.6 7.6l15.16-.04c3.24 0 5.87 2.64 5.87 5.88 0 3.24-2.64 5.87-5.87 5.87h-3.08c-4.19 0-7.6 3.41-7.6 7.6 0 4.19 3.41 7.6 7.6 7.6.48 0 .86-.39.86-.86s-.39-.86-.86-.86c-3.24 0-5.87-2.64-5.87-5.87 0-3.24 2.64-5.88 5.87-5.88h3.08c4.19 0 7.6-3.41 7.6-7.6 0-4.19-3.41-7.6-7.6-7.6l-15.16.04a5.89 5.89 0 0 1-5.88-5.88c0-3.24 2.64-5.87 5.88-5.87h7.37l3.84 6.33 11.96-19.28v-21.84c9.78-1.14 18.8-4.78 26.42-10.26v40.46h3.08v6.02c-.07.01-.15.02-.22.05-.45.16-.77.54-.86 1.02-.32 1.61-1.01 5.79-.75 10.26h-.13c-.3 0-.56.11-.77.31s-.32.47-.32.76l-.03 3.56c0 .29.11.56.31.76.2.21.47.32.76.32l48.82.49h.01c.28 0 .55-.11.75-.31.21-.2.32-.47.32-.76l.04-3.56a.95.95 0 0 0-.28-.78zM358.28 68.17h20.22v51.87c-1.6.24-3.25.37-4.92.37-5.43 0-10.65-1.31-15.31-3.76V68.17zm6.31 75.33c2.53.4 5.1.62 7.7.68v20.37h-7.7V143.5zm9-1.01c-5.26 0-10.4-.74-15.31-2.16v-21.77c4.7 2.32 9.9 3.56 15.31 3.56 1.67 0 3.31-.12 4.92-.35v20.5c-1.62.15-3.26.22-4.92.22zm-73.17-13.56c-.06.06-.12.12-.17.19l-.23.21-1.53-1.68 35.15-32 1.53 1.68-29.77 27.1-4.98 4.5zm12.76-2.03c-2.06.65-3.92 1.72-5.53 3.18-1.64 1.48-4.15 1.41-5.77-.1l4.69-4.27 28.96-26.2c2.75 2.65 4.83 5.62 5.84 7.19-4.29.51-7.45 2.92-9.16 7-1.28 3.05-1.44 6.2-1.43 7.65-2.58.8-12.57 3.95-17.6 5.55zm19.33-6.22c.09-3.07 1.05-10.79 8.29-12.16l5.3 4.86-10.24 10.13-3.35-2.83zm2.54 6.05 14.25-14.11.23-.22a34.53 34.53 0 0 0 7.03 5.25v22.15c-8-2.59-15.34-7.01-21.51-13.07zm23.23 15.39c1.51.42 3.04.78 4.58 1.08v21.36h-4.58v-22.44zm8.16 36.49h3.73l-1.89 3.04-1.84-3.04zm4.8-1.72h-5.85l-6.44-10.61h18.87l-6.58 10.61zm7.27-12.33h-4.5v-20.35c1.52-.01 3.02-.08 4.5-.21v20.56zm28.14-33.14a54.737 54.737 0 0 1-26.42 10.67v-20.61c12.44-2.4 22.54-11.43 26.42-23.23v33.17zm19.7 46.27c-2.12 2.18-8.4 7.6-14.89 3.08v-6.75h14.89v3.67zm2.25-68.9h-2.44c.97-2.4 1.8-4.87 2.44-7.41v7.41zm-20.23-21.3V68.17h20.23v8.86h-3.36v1.72h3.36V87.62h-3.36v1.72h3.32c-.1 3.02-.45 5.98-1.02 8.87h-2.31v1.72h1.94c-2.79 12.04-9.55 22.57-18.81 30.15V87.49zm0 84.81v-40.03a57.166 57.166 0 0 0 17.06-21.76h3.17v8.87h-3.36v1.72h3.36v8.87h-3.36v1.72h3.36v8.87h-3.36v1.72h3.36v8.87h-3.36v1.72h3.36v8.86h-3.36v1.72h3.36v8.86h-20.23zm1.86 9.72c8.11 5.94 15.81-1.44 17.73-3.53l.98.47c3.39 1.61 11.42 5.42 15.7 7.44 1.95.93 4.04 1.41 6.21 1.44 2.21.03 4 1.79 4.16 4l-6.26-.06-39.13-.52c-.22-3.82.29-7.41.61-9.24zm45.68 13.82-47.53-.48.02-2.27 40.33.4 6.64.09c.08 0 .17-.01.25-.02h.31l-.02 2.28z"/>
    <path class="st2" d="M429.12 182.77c.53.29 1.19.1 1.48-.43.29-.53.1-1.19-.43-1.48a1.09 1.09 0 1 0-1.05 1.91zM433.51 184.74c.55.25 1.19 0 1.44-.55s0-1.19-.55-1.44-1.2 0-1.44.55 0 1.2.55 1.44zM437.82 186.68c.55.25 1.19 0 1.44-.55s0-1.19-.55-1.44-1.19 0-1.44.55c-.24.55 0 1.2.55 1.44zM327.02 118.99c-.58.15-.94.74-.79 1.32s.74.94 1.32.79c.58-.15.94-.74.79-1.33a1.1 1.1 0 0 0-1.32-.78zM322.46 120.53c-.57.19-.88.81-.68 1.38.19.57.81.88 1.38.68.57-.19.88-.81.68-1.38-.19-.56-.81-.87-1.38-.68zM317.98 122.05c-.57.19-.88.81-.68 1.38.19.57.81.88 1.38.68.57-.19.88-.81.68-1.38a1.08 1.08 0 0 0-1.38-.68z"/>
    <defs>
        <path id="SVGID_1_" d="M0 0h529.11v282.19H0z"/>
    </defs>
    <clipPath id="SVGID_00000102515927812788541620000004402583905207049903_">
        <use xlink:href="#SVGID_1_" style="overflow:visible"/>
    </clipPath>
    <path style="clip-path:url(#SVGID_00000102515927812788541620000004402583905207049903_);fill:none;stroke:#0a69b3;stroke-width:2.275;stroke-miterlimit:10" d="M305.92 94.97c-.6.6-1.57.6-2.17 0-.6-.6-.6-1.57 0-2.17.6-.6 1.57-.6 2.17 0 .6.6.6 1.57 0 2.17zm-6.04 6.05c-.6.6-1.57.6-2.17 0-.6-.6-.6-1.57 0-2.17.6-.6 1.57-.6 2.17 0 .6.59.6 1.57 0 2.17zm6.45.4-9.03-9.03"/>
    <path class="st4" d="M404.32 66.26H393m5.66-5.66v11.32M349.79 171.98l-6.8-6.8M342.99 171.98l6.8-6.8M405.68 202.5h-8.33m8.33-3.68h-8.33"/>
</svg>
